<svg id="Layer_1" data-name="Layer 1" xmlns="http://www.w3.org/2000/svg" viewBox="0 0 32.43 32.3"><defs><style>.cls-1{fill:none;}.cls-2{fill:#fff;}.cls-3{fill:gray;}.cls-4{fill:#d6d6d6;}</style></defs><title>top_line_logo_mia</title><polygon class="cls-1" points="0.37 17.24 0.39 17.46 0.4 17.61 0.4 17.84 0.42 17.97 0.42 18 0.44 18.16 0.43 18.15 0.44 18.2 0.43 18.18 0.43 18.15 0.43 18.12 0.42 18.09 0.42 18.07 0.42 18.05 0.41 18.02 0.41 17.98 0.4 17.96 0.4 17.93 0.4 17.9 0.4 17.87 0.4 17.84 0.4 17.82 0.39 17.79 0.39 17.77 0.39 17.74 0.38 17.71 0.38 17.68 0.38 17.65 0.38 17.62 0.37 17.59 0.37 17.57 0.37 17.55 0.35 17.52 0.35 17.49 0.35 17.46 0.35 17.43 0.35 17.4 0.35 17.37 0.35 17.34 0.35 17.32 0.34 17.3 0.34 17.27 0.34 17.24 0.34 17.21 0.33 17.18 0.33 17.15 0.33 17.13 0.33 17.1 0.33 17.07 0.32 17.05 0.32 17.02 0.32 16.99 0.32 16.96 0.32 16.93 0.32 16.9 0.31 16.88 0.31 16.85 0.31 16.82 0.31 16.79 0.31 16.77 0.31 16.74 0.31 16.71 0.3 16.69 0.3 16.66 0.3 16.63 0.3 16.6 0.3 16.57 0.3 16.54 0.3 16.51 0.3 16.5 0.3 16.46 0.3 16.43 0.3 16.41 0.29 16.38 0.29 16.35 0.29 16.32 0.29 16.29 0.29 16.27 0.29 16.23 0.29 16.21 0.29 16.19 0.29 16.16 0.29 16.13 0.29 16.1 0.29 16.07 0.29 16.06 0.29 16.09 0.34 16.78 0.37 17.24"/><path class="cls-1" d="M14.54,1.52l0-.08h.07l.06,0h0l0,0h-.07Z"/><path class="cls-1" d="M6.4,27.11h0l0-.08H6.4l0,0Z"/><path class="cls-1" d="M26.47,28.25v0l-.17.12v0h0l-.12.1,0,0-.07.06h0l.14-.11v0l-.12.06.23-.17Zm-.88.67.13-.08.15-.11,0,0-.12.11-.17.13v0l0,0h0Zm-1,.7-.38.24.15-.1.21-.14.18-.13.16-.14h0l-.18.14Zm1.4-1-.11.09-.1.09-.09.08-.12.07.06,0,.07-.06.05-.06.14-.11-.06.07.21-.18Z"/><path class="cls-1" d="M4.09,19.35l-.17-.19L3.66,19l0-.16.1,0-.07-.3h0l.16.14v-.07h.07l0,.11,0,.11v.13l0,0,0,.16.14.2Zm.32-5,0-.26.12,0,.16.2,0,.23v.11l-.08,0,0,.07ZM13.73,11l-.07,0,0,0h-.1v-.11l.12-.08-.1-.1.14,0,.08.06-.07.09.09,0,.09,0V11l-.06,0Zm-1.18,2.72-.37.25-.16.3,0,.42H12l-.34-.29.08-.17L11.58,14l.13-.19h.14l.13-.19.38-.16-.06-.1.42-.16.08-.17.31-.07.41-.07.32.06.21-.08.19,0v.17l-.11.1-.41.06-.36,0-.48.19Zm3.9-1.78-.1-.08.16-.28.12-.1.15.19L17,12l0,.36-.16.08-.24-.1-.14-.14Zm1.08.59-.44.24,0-.54.06-.06h.06l.26.18Zm3.13-.35-.16-.24,0-.14.17-.16.37-.12.19.25L21,12l0,.18Zm.59-.65-.1-.1.14-.11.21-.14.07.19-.1.1Zm.17,1-.06-.19.06-.12.21,0,.09.06-.1.14-.18.14Zm2-3.69v-.1l.09-.14h0l.1.14,0,.14,0,.13h-.11l-.15-.16Zm4.88,10.34-.2,0,0,.31L28,19.32l-.15-.25-.2-.24-.1-.22-.24-.33L27,18.14l-.25-.35,0-.28-.14-.06,0-.1.16.12.24.18.2.25.24.16.45.23-.24.21.16.46.3,0Zm.27-3.79-.36-.2-.55-.35-.29-.37-.1-.27-.12-.11,0-.31-.24-.54-.21-.47-.15-.43L26.18,12l0,.2.22.24.2.6-.38-.1,0,.47.31.75h.21l-.09.43-.1.27-.18-.17-.17.21,0,.32-.33.44-.28.58.06,1,0,1.25.25-.21.2.08.17-.1V18l.16-.17.41,0,.17.21.08.39.21.32.21.48v.64l.06.23,0,.55-.08.54,0,.25-.17.39-.11.13h-.17l-.18.42v.12l-.05,0-.05-.12.09-.09L26.6,22l-.15-.17.11-.25.24-.17V21l-.09-.34v-.17l-.06-.33-.23.36-.09.26-.28.26-.21-.19h-.32l-.37.18-.21-.23-.16-.13-.14-.08-.27-.22h-.22l-.33.1-.25.18-.21.21-.1.26h.14l.09.18-.08.16-.06.45.06.14-.23.36-.3,0-.26.15-.16,0-.14,0L22,23l-.29.18-.19.17-.32.06-.22.09-.19-.12-.27-.09-.26,0-.3.14-.23.12-.37-.07-.1-.25-.3,0h-.23l-.29-.1-.22.41.12.19-.23.28-.37,0h-.26l-.18-.15-.27,0-.23-.11-.39.19-.5.3-.28.06-.1,0-.13-.22-.34,0L15,24l-.18-.09-.1-.21-.14-.09-.37,0-.33-.26-.15.16-.41-1-.25-.35.11-.09-.64.2-.23,0,.07-.19-.27-.21h-.25l0-.39-.36-.22-.24.08-.58-.1-.13,0L9.77,21,9.63,21l.06.31-.23,0v.1l-.26,0,.25.41L9.33,22,9,21.79l-.1.06-.19-.33-.32-.2-.27,0L8,21l-.31-.53-.29-.23H6.86l-.14.19-.07-.33-.32.17,0,.1-.22.1,0,.32.14.12,0,.29-.09.13.07.12-.16.08-.2-.12-.23.06-.09,0,0,.4L5.62,22l0,.06,0,.27,0,.22-.15,0-.07,0-.07-.11-.06-.27,0-.06-.09-.18v-.15L5,21.55l-.05,0-.07,0v-.07L4.71,21l-.22-.33-.1-.21h0L4.28,20l-.11-.32,0-.31.13.12.25,0,0-.21.27.2,0-.06-.15-.14.08-.1.11,0,.15.16.08,0,.06-.17.15-.06,0-.08-.15-.35-.08-.11v-.23L5,18.24l-.08-.33,0,0,0-.17-.08-.16.06-.09H5l0-.26L4.92,17l0-.07H4.82l0-.09.11-.19,0-.11H5l.07.16.09,0,0-.11,0-.17,0,0v-.12l.09-.26.08,0,.1-.12,0-.22-.06-.07,0-.09,0-.24.12-.19L5.59,15l0-.14h.11l.21-.26h.21l0-.05.24.05,0-.28.52,0h.23l.17-.06.08-.37.22-.09.14-.3.31-.12L8.38,13l.3-.07.1-.33L9,12.46l.08.07.24.1.17,0L9.43,13l.14.35v.73l-.06.22-.17.19-.26,0-.23-.12-.16-.74-.1-.06L8.51,14l-.12.12-.28.28,0,.24v.17l.14-.11.06-.19.16,0,.07.47.15,0,.12-.29.5,0,.08.12V15l.24-.15.07-.28.21-.12L10,14.2l.2.38-.08.23L10,14.73l-.14.17v.18l.23.09.18-.18.35,0,.6,0,.08.08-.26.14.13.13.15-.06.24.13.27,0,0,.31.28-.16,0-.29.13-.09.32.29.13.2.32.65.16-.17-.07-.26,0-.08-.14-.1.11-.16,0-.34,0-.12.37-.27.2-.33.11,0,.28.2,0,.23-.21.29,0,.15,0,.3-.19.54.09.29-.13.25-.47.47.16.12.11-.12.2,0,.09-.19.18-.16,0-.25.13-.25-.15-.08,0-.24.22-.37L14,15.22l.3-.21,0-.3h.06V15l-.14.39.12.11v-.31l.24-.11.27,0,.2.28L15.1,15l.06-.44.22-.06.28,0,.25,0-.08-.22L16,14h.12l.21-.2.27-.07,0-.11.26-.06.1.09.19-.24.19,0v-.17l0-.19.17-.21.18.09-.09.12h.22l.08.19.06-.12.27-.08.28.1.13.11.06.21-.06.15-.18.32,0,.14h.15l.19,0,.06-.11.17.23v-.13l.14-.12.36-.1.12.15.45-.18-.16-.28.24-.06.15-.11.28.07.2.18,0,.18.32.17h.25l-.17-.41h.26l.08-.22.25-.08,0-.15L22,13l-.34-.2,0-.23.79-.66.24.06.39-.1.13-.47.14-.19.17,0,.24.15.14-.1,0-.19,0-.22.13-.19v-.25l.33-.1-.09-.19-.23,0-.14-.1L24,9.71V9.45l.16-.31L24.28,9l.22-.25.27-.28.2,0L25,8.44h-.22l0-.34L25,7.88l.17.15.08.23.3,0,.08.07,0,.13-.08.09-.06.17h-.12l0,.14.06.16-.1.05L25.19,9l.1.18.15,0,.14.11.15.22,0,.18.17-.08.24,0,.08,0,.11,0,.08.06,0,.27.24.53,0,.15.19.34.16.32.13.13-.22.14.16.55-.11,0,.08.23-.08.2.17.17.21.37.1.07.1-.16.38.27,0,.18.19.23h.13l0,.43.24.27,0,.35.21.25.1.47Z"/><polygon class="cls-1" points="1.11 11.2 1.11 11.21 1.12 11.2 1.12 11.17 1.11 11.2"/><path class="cls-1" d="M26.47,7.46l.07.09v.1l0,.09-.09-.16,0-.12h.1Zm-.4-1.82.18.14v.08l-.09,0L26,5.74l-.08-.08,0-.09,0-.06ZM11.92.79l0,0h0Z"/><polygon class="cls-2" points="14.7 1.48 14.71 1.47 14.65 1.44 14.58 1.44 14.54 1.52 14.59 1.54 14.65 1.53 14.7 1.48"/><polygon class="cls-2" points="16.75 4.77 16.8 4.8 16.95 4.84 16.98 4.67 16.95 4.54 16.86 4.44 16.83 4.45 16.82 4.37 16.63 4.33 16.55 4.34 16.52 4.43 16.6 4.51 16.68 4.52 16.65 4.64 16.75 4.77"/><polygon class="cls-2" points="17.23 3.75 17.03 3.76 16.94 3.97 16.92 4.11 16.99 4.32 17.05 4.24 17.14 4.27 17.3 4.21 17.42 4.24 17.5 3.95 17.38 3.83 17.23 3.75"/><polygon class="cls-2" points="16.26 3.6 16.08 3.57 15.87 3.58 15.59 3.63 15.45 3.62 15.3 3.7 15.22 3.8 15.29 3.93 15.43 4.03 15.61 4.02 15.8 3.98 15.93 3.93 16.17 3.95 16.21 3.99 16.3 4.04 16.28 4.13 16.39 4.23 16.57 4.24 16.65 4.33 16.87 4.37 16.95 4.21 16.83 4.1 16.65 4.04 16.58 3.96 16.58 3.85 16.55 3.68 16.26 3.6"/><polygon class="cls-2" points="16.66 3.62 16.57 3.75 16.61 3.85 16.71 3.98 16.91 3.91 17 3.75 16.85 3.66 16.66 3.62"/><polygon class="cls-2" points="18.2 4.78 18.09 4.6 17.86 4.62 17.76 4.74 17.85 4.81 17.66 4.84 17.77 4.99 17.83 5.04 17.99 4.97 18.03 4.87 17.99 4.85 18.04 4.86 18.2 4.78"/><polygon class="cls-2" points="17.29 4.64 17.2 4.55 17 4.46 17 4.66 17.03 4.81 17.22 4.96 17.4 5.05 17.45 4.87 17.4 4.8 17.55 4.72 17.29 4.64"/><polygon class="cls-2" points="15.02 6.18 15.15 6.18 15.87 5.99 15.94 5.91 15.95 5.84 15.96 5.85 16.07 5.87 16.14 5.74 16.23 5.7 16.3 5.69 16.41 5.61 16.61 5.43 16.59 5.37 16.62 5.36 16.7 5.25 16.76 5.11 16.74 4.97 16.65 4.84 16.6 4.83 16.61 4.7 16.52 4.56 16.34 4.51 16.17 4.53 16.14 4.57 16.09 4.55 16.18 4.51 16.14 4.33 16.3 4.27 16.26 4.07 16.06 4.05 15.91 4.03 15.66 4.09 15.4 4.05 15.16 4.27 15.16 4.41 15.33 4.37 15.27 4.43 15.26 4.54 15.18 4.62 15.11 4.77 15.21 4.88 15.17 4.96 15.11 4.99 15.09 5.06 14.95 5.14 14.95 5.4 14.9 5.5 14.83 5.81 14.81 6.03 14.87 6.13 15.02 6.18"/><path class="cls-2" d="M9,2.27,9.6,2v.13l.1-.05.18,0,.27-.08.31,0,.29-.11.42,0h.36l.34,0,.24,0,.08-.12.05-.15.48-.12.13.1.08.1.3-.07.5.06.11-.07.16,0,.29,0,.16-.08-.17-.23-.08-.06.25-.13-.4-.1L13.91,1l.17-.09.51-.14-.38,0L14.13.62l.13,0h.3l.16.05.06,0v.1l.57,0,.57.07.54.08.24,0,.14.18.23,0-.09.14-.39.22-.2,0,0,.1-.08.05H16l-.21.12-.1.14,0-.19L16,1.52l-.4,0-.07-.08-.37.18-.07,0,.25-.13-.1-.1h-.14l-.22.11V1.6h-.08l-.25.13.34,0,.24.09.33,0,0,.06h.12V2h-.33L15,2.19v.13l.1.07-.06.09.1.16-.24.06,0,0-.09,0h-.11l-.1-.06.11-.09h-.25l.11,0,0-.15-.1-.12-.18.05-.11.14,0,.11-.18,0-.11-.07L14,2.29l0-.13h0l.18-.05.3-.05.1-.2-.22,0-.51.13h-.33l0-.06h-.3l-.39,0L12.32,2l.18.09h0l-.21,0,0,.18.22.1h.33l.19,0-.1.07-.56-.06-.11.31.08.17.23-.09.3.07.23,0h.25L13.27,3l.28.15.17,0H14l.19.1.17-.09,0,.05.29.09,0,.14.24.1h.26l.09-.11.1.09.29-.14.06-.12,0,0-.1.22.36-.09.14-.11.09-.23,0-.27v0l-.17-.1-.38-.05,0-.19.07-.15.09-.1.09.07,0,.13.21.17.13-.11v.12l.18,0-.07.06.17.27.14.11-.08.09-.16.07-.23.27.27.08.23,0,.13-.06.1-.29.1.08L17,3.43l0,.14h.21l.12.07.22-.12,0-.11.15,0,.06-.14-.25-.22L17.4,3l-.14,0L17,3l.11-.29.17.1.33-.17-.23-.16h.06v-.1l.36,0,.2.11.15,0,.07.11h0l-.12-.06-.24-.08-.12.1,0,0-.22.13L17.8,3l.14.12,0,.12V3.4l-.18.14.1.12.18,0,.27-.07,0-.19v.08l.08.14.18-.07.08.14h.15l.11.3.05.11.23.13.09.09.39.22,0-.25.18-.07.37-.16-.15-.24,0-.14-.43-.07,0,0-.14-.13h.11l0-.17-.15-.07.19,0-.05-.25.12.08.21.17.1.15.15.1.11,0,.08,0-.14.16.33,0V4l.09.09L20.78,4h.06v.1l.25.09.22.05.12.11.21.07.16,0,.07.07,0,.17.22.47.15.1.14.25.07.23.11.09,0,.09h-.08l.11.31,0,.2.25.13,0,.09.52.4.17,0,.18.12.1.21.25.1,0-.21.08-.1.12-.09.12-.2.06.13-.11,0,0,.14.26.3s.15.23.23.23.14-.19.14-.19l.11-.06V7.26l-.11-.2,0-.12-.1,0h0V6.76h.06l.1.08,0,.1.16.11v.09l.08.13.17.07.21.13.21.09.08-.1h.14l0,.14.14.25.08-.17,0-.13-.1-.13h-.15V7.32l.08-.14L26.3,7h.3l-.08-.16-.14-.12s.11,0,.11-.07-.14-.06-.14-.06.07-.06.06-.09-.14-.09-.14-.09v0l0,0,.15,0,1.25,1.29.1-.07-.22-.35-.43-.49-.24-.31-.14-.07-.24-.25-.13,0-.15-.15h0l.1,0V5.75l-.44-.32,0,.14.07.13-.18-.1,0,.1-.32-.2.21-.12-.18-.11h-.2L25.05,5,25,4.93l-.14,0-.13-.11,0-.15-.12-.26-.18-.17-.14-.22L24.14,4,24,3.7l-.11-.16-.31-.26.06-.09L23.62,3s.08-.05.09-.09-.11-.13-.11-.13l.05,0-.11-.17s.08,0,.08-.06-.12-.1-.12-.1l0-.06.21.1,0-.15-.16-.11s-.3-.17-.27-.26l.18,0,.34.13.19.09L23.75,2h0l-1.19-.51A27.19,27.19,0,0,0,17,.16,22.68,22.68,0,0,0,13.8.34a24.76,24.76,0,0,0-3.63,1.08c-.38.16-1.45.78-1.45.78v.14l.17,0Zm9.79.32.08.13H19l.35.09.06,0h-.12l-.26-.07-.31-.06.07,0-.09-.1Z"/><polygon class="cls-2" points="18.25 4.86 18.47 4.88 18.58 4.93 18.87 4.85 19.19 4.75 19.08 4.58 18.9 4.54 18.68 4.57 18.6 4.54 18.93 4.34 18.79 4.21 18.57 4.14 18.61 4.14 18.68 3.99 18.47 3.93 18.18 3.95 17.82 3.89 17.7 4.01 17.66 4.19 17.8 4.24 17.85 4.23 17.85 4.26 17.81 4.4 17.94 4.49 18.12 4.4 18.1 4.19 18.15 4.21 18.23 4.38 18.44 4.58 18.58 4.55 18.46 4.6 18.25 4.86"/><polygon class="cls-2" points="23.92 2.81 23.64 2.83 23.93 3 23.98 3.07 24.09 3.07 24.15 2.98 24.1 2.91 24.1 2.85 24.04 2.77 23.86 2.6 23.92 2.81"/><polygon class="cls-2" points="1.64 18.42 1.63 18.18 1.46 18.22 1.54 18.6 1.7 19.02 1.82 18.95 1.76 18.83 1.64 18.42"/><polygon class="cls-2" points="14.86 5.84 14.78 5.72 14.89 5.45 14.89 5.44 14.88 5.26 14.64 5.19 15.04 4.8 15 4.64 14.63 4.58 14.79 4.46 14.34 4.26 13.92 4.45 13.74 4.51 13.42 4.34 13.19 4.39 12.68 4.16 12.59 4.14 12.53 3.91 12.34 3.92 12.27 4 12.14 4 12.25 3.92 12.02 3.65 11.8 3.68 11.65 3.91 11.56 3.79 11.66 3.64 11.54 3.37 11.4 3.37 11.32 3.25 10.98 3.24 10.62 3.13 9.73 3.17 9.45 3.37 9.13 3.46 8.89 3.66 9.04 3.81 9.14 3.92 9.31 3.94 9.29 4.13 9.52 4.3 9.54 4.39 9.33 4.75 9.28 5.06 9.42 5.28 9.44 5.38 9.36 5.49 9.22 5.82 9.26 6.16 9.39 6.56 9.53 6.36 9.47 6.59 9.8 6.59 10.04 6.5 9.91 6.59 10.17 6.63 10.35 6.58 10.34 6.6 10.3 6.79 10.46 6.86 10.57 6.82 10.51 6.99 10.86 6.92 10.85 6.99 11.21 7.02 11.42 6.94 11.45 7.01 11.39 7.19 11.73 7.13 12.57 7.44 12.86 7.77 13.08 7.74 13.22 7.59 13.16 7.28 13.41 7.32 13.55 7.47 14 7.31 14.25 7.04 14.33 6.89 14.26 6.8 14.37 6.71 14.32 6.45 14.23 6.36 14.43 6.37 14.41 6.19 14.48 6.22 14.86 5.84"/><path class="cls-2" d="M7.45,7.49l.27-.16.19,0L8,7.09,8,6.9l.16-.15-.06-.19.28-.16s.09-.18.07-.23S8.24,6,8.24,6L8,6.28l.11-.34-.37.35-.05-.15-.33.43a.92.92,0,0,0-.14.18,2,2,0,0,0,0,.53Z"/><polygon class="cls-2" points="1.29 14.4 1.54 14.18 1.63 13.93 1.75 13.9 1.91 13.71 1.82 13.56 1.71 13.56 1.6 13.72 1.6 13.48 1.45 13.8 1.29 13.98 1.25 14.13 1.29 14.19 1.29 14.4"/><polygon class="cls-2" points="29.09 21.8 29.08 21.58 28.98 21.38 29.01 20.98 29.02 20.97 28.92 20.8 28.63 20.57 28.61 20.61 28.56 20.34 28.87 20.16 28.86 19.73 29.02 19.34 28.74 19.06 28.71 19.38 28.6 19.46 28.46 19.55 28.09 19.56 28.19 19.86 28.33 20.2 28.18 20.42 28.22 20.73 28.41 20.97 28.45 20.91 28.46 21.15 28.61 21.34 28.64 21.7 28.43 22.38 28.27 22.44 28.23 23.02 28.03 23.2 27.67 23.65 27.57 23.95 27.39 24.26 27.36 24.37 27.33 24.4 27.35 24.39 27.33 24.48 27.11 24.77 27.32 24.85 27.41 24.8 27.41 25 27.61 24.95 27.74 24.73 27.78 24.26 27.78 24.25 27.79 24.28 28.01 24.17 28.03 23.99 28.1 23.86 28.2 23.83 28.29 23.54 28.49 23.44 28.67 22.91 28.96 22.52 29.14 22.15 29.17 21.86 29.09 21.8"/><path class="cls-2" d="M12.19,9c-.09,0-.33.15-.33.15l-.3.23-.08.13-.14,0-.22.3.08.14.34-.09.08,0,.28-.07.24.1.13-.21v.18l.15.19.29,0,.08-.22,0-.24h-.11l0-.08-.22-.18-.11-.14S12.27,9,12.19,9Z"/><polygon class="cls-2" points="11.89 10.15 12.05 10.03 11.84 9.86 11.72 9.97 11.59 9.97 11.54 10.21 11.85 10.33 11.89 10.15"/><polygon class="cls-2" points="26.49 28.18 26.39 28.24 26.28 28.32 26.27 28.32 26.31 28.26 25.83 28.55 25.76 28.6 25.82 28.55 25.95 28.35 25.88 28.34 25.91 28.28 25.81 28.23 25.72 28.34 25.57 28.42 25.41 28.51 25.3 28.69 25.25 28.83 25.15 28.87 25.13 29.01 25.2 29.04 24.97 29.18 25.02 29.49 25.67 29.02 25.67 29.02 26.57 28.3 26.57 28.19 26.49 28.18"/><polygon class="cls-2" points="23.52 8.6 23.47 8.59 23.38 8.72 23.39 8.82 23.41 8.84 23.56 9 23.67 9.01 23.64 8.87 23.61 8.73 23.52 8.6"/><polygon class="cls-2" points="21.58 11.37 21.51 11.18 21.3 11.32 21.16 11.43 21.25 11.53 21.48 11.47 21.58 11.37"/><polygon class="cls-2" points="20.7 11.64 20.52 11.8 20.5 11.94 20.66 12.18 20.98 12.22 21.02 12.04 21.26 11.76 21.07 11.51 20.7 11.64"/><polygon class="cls-2" points="21.44 12.51 21.62 12.36 21.72 12.23 21.63 12.17 21.43 12.19 21.36 12.31 21.43 12.51 21.44 12.51"/><polygon class="cls-2" points="28.16 18.99 27.87 18.95 27.71 18.49 27.95 18.28 27.5 18.05 27.26 17.89 27.06 17.64 26.82 17.46 26.65 17.34 26.63 17.45 26.77 17.51 26.75 17.79 27.01 18.14 27.28 18.28 27.51 18.62 27.61 18.84 27.81 19.07 27.95 19.32 28.11 19.48 28.08 19.17 28.28 19.15 28.16 18.99"/><polygon class="cls-2" points="16.52 12.22 16.66 12.36 16.9 12.46 17.06 12.38 17.02 12.02 16.8 11.66 16.64 11.47 16.52 11.58 16.36 11.86 16.45 11.93 16.52 12.22"/><polygon class="cls-2" points="13.51 11.03 13.61 11.03 13.66 10.98 13.73 10.99 13.83 11.01 13.89 10.97 13.88 10.84 13.78 10.86 13.69 10.91 13.76 10.82 13.68 10.77 13.54 10.74 13.63 10.83 13.51 10.91 13.51 11.03"/><polygon class="cls-2" points="17.2 12.17 17.14 12.23 17.09 12.77 17.53 12.53 17.51 12.36 17.25 12.18 17.2 12.17"/><polygon class="cls-2" points="12.55 13.71 12.9 13.46 13.38 13.26 13.74 13.22 14.16 13.16 14.26 13.06 14.26 12.89 14.07 12.87 13.86 12.95 13.54 12.88 13.12 12.96 12.81 13.03 12.73 13.2 12.31 13.36 12.37 13.46 11.98 13.62 11.85 13.81 11.71 13.81 11.58 14 11.71 14.22 11.63 14.39 11.97 14.68 12.05 14.68 12.01 14.26 12.18 13.96 12.55 13.71"/><polygon class="cls-2" points="25.48 28.2 25.61 27.99 25.75 27.66 25.82 27.46 25.59 27.53 25.39 27.79 25.23 28.04 25.29 28.18 25.48 28.2"/><polygon class="cls-2" points="25.9 7.93 25.78 7.77 25.67 7.74 25.69 7.93 25.63 8.04 25.69 8.14 25.65 8.25 25.86 8.3 25.89 8.22 25.85 8.09 25.87 8.04 25.9 7.93"/><polygon class="cls-2" points="26.76 22.32 26.76 22.31 26.75 22.33 26.76 22.32"/><polygon class="cls-2" points="26.89 22.01 27.06 22.01 27.06 22.01 26.89 22.01"/><rect class="cls-2" x="8.79" y="14.68" height="0.31"/><polygon class="cls-2" points="8.85 14.39 8.69 13.64 8.59 13.59 8.59 13.59 8.69 13.64 8.85 14.39 9.08 14.51 9.34 14.48 9.34 14.48 9.08 14.51 8.85 14.39"/><rect class="cls-2" x="10.07" y="14.67" height="0.19"/><polygon class="cls-2" points="9.43 15.01 9.43 15.01 9.67 14.87 9.74 14.59 9.95 14.47 10.04 14.2 10.04 14.2 9.95 14.47 9.74 14.59 9.67 14.87 9.43 15.01"/><polygon class="cls-2" points="8.29 14.69 8.34 14.5 8.34 14.5 8.29 14.69 8.14 14.8 8.14 14.8 8.29 14.69"/><path class="cls-2" d="M26.9,23.9l-.25-.1v0h0l0,0v0h-.16l0-.08.06-.12.12-.15.06-.15,0-.07.1-.16-.09-.18,0-.12,0-.15.06,0h0l.08,0-.11,0v0l-.05,0-.05-.12.09-.09L26.6,22l-.15-.16.11-.25.24-.17V21l-.09-.34v-.17l-.06-.33-.23.36-.09.26-.28.26-.21-.19h-.32l-.37.18-.21-.23-.16-.13-.14-.08-.27-.22h-.22l-.33.1-.26.18-.21.21-.1.26h.14l.09.18-.08.16-.06.45.06.14-.23.36-.3,0-.26.15-.16,0-.14,0L22,23l-.3.18-.19.17-.32.06-.22.08-.19-.12-.27-.09-.26,0-.3.14-.23.12-.37-.07-.1-.25-.3,0h-.23l-.29-.1-.22.41.12.19-.23.28-.37,0h-.26l-.18-.15-.27,0-.23-.11-.39.18-.5.29-.28.06-.1,0-.13-.22-.34,0-.1-.16-.18-.09-.1-.21-.14-.08-.37,0-.33-.26-.15.16-.41-1-.25-.35.11-.09-.64.2-.23,0,.07-.19-.27-.21h-.25l0-.39-.36-.22-.23.08-.58-.1-.13,0-.81-.27L9.63,21l.06.31-.23,0v.11l-.26,0,.25.41L9.34,22,9,21.79l-.1.06-.19-.33-.32-.2-.27,0L8,21l-.31-.53-.29-.23H6.86l-.14.19-.07-.33-.32.17,0,.1-.22.11,0,.32.14.12,0,.29-.09.13.07.12,0,0v0l.22.12.26.07.12.19.2.14,0,.16-.11.18-.36-.27-.09.17-.18-.19-.08.17.09.17,0,.31.2.28v.08l-.1.12h0v.1h0v.22l-.14.18.13.13-.11.11.14.23-.1.19v.18L5.69,24l-.1-.23-.18-.23,0-.26.26-.16.25.2-.08-.27L5.77,23l0-.25-.05-.25h0v0l-.15,0-.07,0-.07-.11-.06-.27,0-.06-.09-.18v-.15L5,21.55l-.05,0-.07,0V21.4L4.72,21l-.22-.33-.1-.21h0v0h0v.18l.08.15,0,.18,0,.17h0l0,0-.21-.12L4,20.86l-.19-.2-.16-.38-.37-.9-.17-.2L2.92,19l-.19-.49,0-.25L2.76,18,3,18l.13-.08.14.1,0-.07h.28l.09.12-.05.08.15.39v.07l0,0h0v0h0v-.07h.07l0,.11,0,.11v.13l0,0V19H4l.1-.15.13.06.12.18.15.06.16.17,0,0,.12.11,0,.06h0l0-.06-.15-.14.08-.1.11,0,.15.16.08,0,.06-.17.15-.06,0-.08-.15-.35-.08-.11v-.23L5,18.24l-.08-.33,0,0,0-.17-.08-.16.06-.09H5l0-.26L4.92,17l0-.07H4.82l0-.09.11-.19,0-.11H5l.07.16.09,0,0-.12,0-.16,0,0v-.12l.09-.26.08,0,.1-.12,0-.22-.06-.07,0-.09,0-.24.12-.19L5.59,15l0-.14h.11l.21-.26h.21l0-.05h0v0l-.09-.17,0-.21L6,14l-.18-.18-.2.16-.06.23,0,0-.09.06-.17.1,0-.07.15-.3-.19-.14-.2,0L4.84,14h0l0,0,0,0h0l-.16.16,0,0,0,.23v.11l-.08,0,0,.07-.12-.35,0-.26h0l0-.16,0-.05V13.6l-.32-.43L4,13.11l0-.1.07-.32L4,12.48l.06,0,.05-.23h0l.15-.15.12,0v0l-.14.13-.12.31.15.06h0l.06.29.2,0,0,.25.32-.07.42-.2.1.13.41-.05.12-.27.16-.23.41-.12.32.13.34.09.19-.15h.23l.15.15-.06.24-.08.07-.08,0L7,12.72H6.79l-.21,0L6.34,13,6,13.17l0,.24-.12.23.19.25.22.21.16.28h0v0l.52,0h.23l.17-.06.08-.37.22-.09.14-.3.31-.12L8.38,13l.3-.07.1-.33L9,12.46l.08.07.24.1h0l.1-.21.18.08.07-.59-.17-.15-.08-.23H9.13l-.05-.17-.24-.19L8,11l-1.14-.1-.33-.15-.26-.29L6,10.31l-.68.34L5,10.84l-.14.33.07.25.31.16-.11.15-.37.35-.25.31-.12-.23H4.6l0-.15,0,0h.09l.2-.1-.19-.17,0-.16-.2,0-.27.15L4,11.93l-.1,0,0-.39-.1-.26H3.43l0,0L3.34,11l0,0,.12-.14,0,.05.19-.07.07-.27.71-.74.08-.19.15.06.25,0,0-.23V9.36l.23.09,0-.25L5.34,9l-.22-.1-.27,0-.15.13-.25.09L4.55,9l.06-.17-.09-.13L4.39,8.5l-.27.19L3.94,8.6l-.14.34,0,.33.2.09.17-.09.14,0,.08-.1.1.06,0,0-.08,0-.19.33L4,9.77l.08-.28-.23,0-.08.09,0-.16-.15.15-.06.16-.16-.24-.12.21,0,.11L3.27,10l.07.08-.06.09v.06l-.25.2.07-.24,0-.33L2.89,10l-.14.36-.11.21-.2.33-.28.15h0l.36-1.31V9.35l-.28.31h0l-.12.22,0-.14-.21.2-.2.34-.13.42-.11.22h0l0-.11.06-.37-.15,0-.15.42L.79,12.18a14.25,14.25,0,0,0-.5,4c0,.08,0,.43,0,.51a15.42,15.42,0,0,0,.24,3.16A20.93,20.93,0,0,0,1.82,23.2a15.41,15.41,0,0,0,3.36,4.61l.14-.09.06-.09v0l0,0-.54-.5.67.56v-.06l.15.11L6,28l.19.07.16.11h.1l.24.14h.1l0-.12h0l.12.09h.26l.14,0v-.09l-.11-.08L7,27.82l-.46-.41-.1-.18L6.33,27,6,26.91l-.15,0-.49-.44-.07-.08,0,0-.06-.25L5.16,26l-.1,0L5,26v-.17l-.16-.29L4.68,25h0l0,0h0l.32.26.1.36.12.29.21.24.22.32.28.29.26.12.21.06,0,.24.4.4.27.22.49.34,0,0,.35.19.44.24.51.22.2.21.08.15.23.13.31.24s-.15,0-.16,0,.5.4.5.4l.22.1.42.07,0,.11v.14l.25.4.31.21.15.17.19.12.11.05.3.18.3.11.49,0H13l.1.13.17,0,.26,0h.14l.12-.08-.24-.09-.15,0-.24-.06h0v-.06l.13,0-.1-.19.44,0h.2l.28-.06.59-.12.46,0,.22-.07,0-.08h.58l0,0h.25l.13,0,.16-.1v0h.21l.11.06.07.12.22.13v0l.13,0,.39.14,0,0-.15.18H18l.36-.1.19-.06.1,0,0,.08.11.09.08,0,0,.06h0l0,0-.17.12-.61.09-.2,0,0,.19h.35l2.09-.42-.06-.18-.48.08-.48,0h0l.14-.08,0-.07.1,0-.07.07.42-.09.34,0h.18l.18,0h.27l.42-.16.25-.12L21.7,31h0l.22-.09.27-.14.09-.17-.14-.12H22l-.26,0-.39-.09.25-.18.39-.25.14-.07.25-.07.07.06-.19.09-.16.12v.17l.3-.07.27-.16.07-.09.22-.18-.19,0,0-.08.29-.14.4-.26.15-.13h.1l.18-.15.31-.17.38-.33.37-.35.22-.33.19-.34.14-.3.15-.11,0-.21v-.23l-.19.05h0l.12-.13,0-.2-.23,0-.18-.08L25,26.1l-.23,0,.06-.15.21-.25.08-.19.35-.32-.13-.15-.18.11-.26,0-.22.33-.16,0,0-.1-.24.09-.12-.06.07-.14.24-.15.11-.25.21-.34.15-.19.08,0-.12.28.08.06-.17.41.42-.44.13-.22.28-.29h.11l.12-.06v.15l0,0,0,0-.05.22.15,0h0l0,.06.11-.14v0l.08,0,.13,0-.14.15.19.16V25l.1.16.25-.24.14-.23.18-.21.06-.21L27,24ZM3.28,10.3v.23l0,.28-.14-.16ZM1.84,20.38l-.08-.13-.32-1.13-.12-.48v-.16l-.14-.54-.09-.13L1,17.8l-.07-.27-.07-.66,0-.24,0-1.19,0-.25h0L1,15.09l0-.11h0l.06.07.06-.12-.05-.15,0-.05,0-.58,0-.13,0-1.36,0-.3L1.36,12l.06.15L1.52,12l.09.09h0v.2l.1.22.13-.14h0l0,.21L1.81,13l.1.23.08.07v.06l-.05.34-.14.2-.15.56-.12.91-.06.27,0,.12h0l-.08-.38,0-.37-.15.1,0,.45v.46l.17-.12,0,.13h.13l0,.12.14-.1,0-.21h0l0,.46.14,0,0-.09,0-.29,0-.35,0-.2,0-.55.11-.23.05-.29.06-.12.06.16-.09.2h.1v.1l-.07.12,0,0L2,15.15H2l0,.45-.08.62-.1.11-.07.11,0,.29-.09.43-.12.38v.28l.11.33.06-.24.06.15.17-.14,0-.18v-.1L2,17.49l.19.34V17.6l0,.08.07.25v0l0,.2-.09,0v.26l-.14,0v.31l0,.32.11.26.06.32.11.19.07,0L2.4,20l0,.29.22.36.14.06.1.24h0l-.28-.31-.1-.2-.19-.24v.3l.05.16.25.26v-.1L2.9,21v.13H2.85l0,.15-.42.17-.15-.25L2,20.66ZM3,24.66l-.1-.23-.18-.35L2.63,24l-.06-.21-.05-.31h0l-.27-.88-.07-.32,0-.18.08,0,.06.15,0,.22.36,1.18.07.27v.19l.12.28.36.73.11.18Zm3.67-1-.17-.21h0l.08-.15.13.05v.15l.07.2Z"/><polygon class="cls-2" points="3.65 19 3.91 19.16 4.09 19.35 4.09 19.35 3.91 19.16 3.66 19 3.62 18.84 3.71 18.79 3.64 18.49 3.64 18.49 3.71 18.79 3.62 18.84 3.65 19"/><rect class="cls-2" x="4.51" y="19.28" height="0.21"/><path class="cls-3" d="M4.09,19.35l-.17-.19L3.66,19l0-.16.1,0-.07-.3h0l.16.14v-.07h.07l0,.11,0,.11v.13l0,0,0,.16.14.2Zm.32-5,0-.26.12,0,.16.2,0,.23v.11l-.08,0,0,.07ZM13.73,11l-.07,0,0,0h-.1v-.11l.12-.08-.1-.1.14,0,.08.06-.07.09.09,0,.09,0V11l-.06,0Zm-1.18,2.72-.37.25-.16.3,0,.42H12l-.34-.29.08-.17L11.58,14l.13-.19h.14l.13-.19.38-.16-.06-.1.42-.16.08-.17.31-.07.41-.07.32.06.21-.08.19,0v.17l-.11.1-.41.06-.36,0-.48.19Zm3.9-1.78-.1-.08.16-.28.12-.1.15.19L17,12l0,.36-.16.08-.24-.1-.14-.14Zm1.08.59-.44.24,0-.54.06-.06h.06l.26.18Zm3.13-.35-.16-.24,0-.14.17-.16.37-.12.19.25L21,12l0,.18Zm.59-.65-.1-.1.14-.11.21-.14.07.19-.1.1Zm.17,1-.06-.19.06-.12.21,0,.09.06-.1.14-.18.14Zm2-3.69v-.1l.09-.14h0l.1.14,0,.14,0,.13h-.11l-.15-.16Zm4.88,10.34-.2,0,0,.31L28,19.32l-.15-.25-.2-.24-.1-.22-.24-.33L27,18.14l-.25-.35,0-.28-.14-.06,0-.1.16.12.24.18.2.25.24.16.45.23-.24.21.16.46.3,0Zm.27-3.79-.36-.2-.55-.35-.29-.37-.1-.27-.12-.11,0-.31-.24-.54-.21-.47-.15-.43L26.18,12l0,.2.22.24.2.6-.38-.1,0,.47.31.75h.21l-.09.43-.1.27-.18-.17-.17.21,0,.32-.33.44-.28.58.06,1,0,1.25.25-.21.2.08.17-.1V18l.16-.17.41,0,.17.21.08.39.21.32.21.48v.64l.06.23,0,.55-.08.54,0,.25-.17.39-.11.13h-.17l-.18.42v.12l-.05,0-.05-.12.09-.09L26.6,22l-.15-.17.11-.25.24-.17V21l-.09-.34v-.17l-.06-.33-.23.36-.09.26-.28.26-.21-.19h-.32l-.37.18-.21-.23-.16-.13-.14-.08-.27-.22h-.22l-.33.1-.25.18-.21.21-.1.26h.14l.09.18-.08.16-.06.45.06.14-.23.36-.3,0-.26.15-.16,0-.14,0L22,23l-.29.18-.19.17-.32.06-.22.09-.19-.12-.27-.09-.26,0-.3.14-.23.12-.37-.07-.1-.25-.3,0h-.23l-.29-.1-.22.41.12.19-.23.28-.37,0h-.26l-.18-.15-.27,0-.23-.11-.39.19-.5.3-.28.06-.1,0-.13-.22-.34,0L15,24l-.18-.09-.1-.21-.14-.09-.37,0-.33-.26-.15.16-.41-1-.25-.35.11-.09-.64.2-.23,0,.07-.19-.27-.21h-.25l0-.39-.36-.22-.24.08-.58-.1-.13,0L9.77,21,9.63,21l.06.31-.23,0v.1l-.26,0,.25.41L9.33,22,9,21.79l-.1.06-.19-.33-.32-.2-.27,0L8,21l-.31-.53-.29-.23H6.86l-.14.19-.07-.33-.32.17,0,.1-.22.1,0,.32.14.12,0,.29-.09.13.07.12-.16.08-.2-.12-.23.06-.09,0,0,.4L5.62,22l0,.06,0,.27,0,.22-.15,0-.07,0-.07-.11-.06-.27,0-.06-.09-.18v-.15L5,21.55l-.05,0-.07,0v-.07L4.71,21l-.22-.33-.1-.21h0L4.28,20l-.11-.32,0-.31.13.12.25,0,0-.21.27.2,0-.06-.15-.14.08-.1.11,0,.15.16.08,0,.06-.17.15-.06,0-.08-.15-.35-.08-.11v-.23L5,18.24l-.08-.33,0,0,0-.17-.08-.16.06-.09H5l0-.26L4.92,17l0-.07H4.82l0-.09.11-.19,0-.11H5l.07.16.09,0,0-.11,0-.17,0,0v-.12l.09-.26.08,0,.1-.12,0-.22-.06-.07,0-.09,0-.24.12-.19L5.59,15l0-.14h.11l.21-.26h.21l0-.05.24.05,0-.28.52,0h.23l.17-.06.08-.37.22-.09.14-.3.31-.12L8.38,13l.3-.07.1-.33L9,12.46l.08.07.24.1.17,0L9.43,13l.14.35v.73l-.06.22-.17.19-.26,0-.23-.12-.16-.74-.1-.06L8.51,14l-.12.12-.28.28,0,.24v.17l.14-.11.06-.19.16,0,.07.47.15,0,.12-.29.5,0,.08.12V15l.24-.15.07-.28.21-.12L10,14.2l.2.38-.08.23L10,14.73l-.14.17v.18l.23.09.18-.18.35,0,.6,0,.08.08-.26.14.13.13.15-.06.24.13.27,0,0,.31.28-.16,0-.29.13-.09.32.29.13.2.32.65.16-.17-.07-.26,0-.08-.14-.1.11-.16,0-.34,0-.12.37-.27.2-.33.11,0,.28.2,0,.23-.21.29,0,.15,0,.3-.19.54.09.29-.13.25-.47.47.16.12.11-.12.2,0,.09-.19.18-.16,0-.25.13-.25-.15-.08,0-.24.22-.37L14,15.22l.3-.21,0-.3h.06V15l-.14.39.12.11v-.31l.24-.11.27,0,.2.28L15.1,15l.06-.44.22-.06.28,0,.25,0-.08-.22L16,14h.12l.21-.2.27-.07,0-.11.26-.06.1.09.19-.24.19,0v-.17l0-.19.17-.21.18.09-.09.12h.22l.08.19.06-.12.27-.08.28.1.13.11.06.21-.06.15-.18.32,0,.14h.15l.19,0,.06-.11.17.23v-.13l.14-.12.36-.1.12.15.45-.18-.16-.28.24-.06.15-.11.28.07.2.18,0,.18.32.17h.25l-.17-.41h.26l.08-.22.25-.08,0-.15L22,13l-.34-.2,0-.23.79-.66.24.06.39-.1.13-.47.14-.19.17,0,.24.15.14-.1,0-.19,0-.22.13-.19v-.25l.33-.1-.09-.19-.23,0-.14-.1L24,9.71V9.45l.16-.31L24.28,9l.22-.25.27-.28.2,0L25,8.44h-.22l0-.34L25,7.88l.17.15.08.23.3,0,.08.07,0,.13-.08.09-.06.17h-.12l0,.14.06.16-.1.05L25.19,9l.1.18.15,0,.14.11.15.22,0,.18.17-.08.24,0,.08,0,.11,0,.08.06,0,.27.24.53,0,.15.19.34.16.32.13.13-.22.14.16.55-.11,0,.08.23-.08.2.17.17.21.37.1.07.1-.16.38.27,0,.18.19.23h.13l0,.43.24.27,0,.35.21.25.1.47Z"/><path class="cls-4" d="M28.74,26.23a16.07,16.07,0,0,0,2.82-5.31A15.42,15.42,0,0,0,30.16,7.79s-1-1.55-1.51-2.11A17,17,0,0,0,16.29,0a17.34,17.34,0,0,0-2.24.17C7,1,1.42,6.16.4,12.65A16.06,16.06,0,0,0,16.08,32.3h.22A16.06,16.06,0,0,0,25,29.63a15.07,15.07,0,0,0,3.73-3.4h0Zm-3.82,3c0,.1,0,.18,0,.23A15.92,15.92,0,0,1,21,31.33c0-.08,0-.18,0-.31A16.16,16.16,0,0,0,24.92,29.23ZM21,30.8c0-.43,0-1.07-.11-2a16.4,16.4,0,0,0,4-1.77A8.46,8.46,0,0,1,25,29,16,16,0,0,1,21,30.8Zm-13.65-2a7.55,7.55,0,0,1,.11-1.68,16.39,16.39,0,0,0,4,1.76,15.55,15.55,0,0,0,0,1.9A16,16,0,0,1,7.32,28.76ZM11.49,31c0,.18,0,.31.06.41a15.93,15.93,0,0,1-4.08-1.9A1.73,1.73,0,0,1,7.35,29,16.19,16.19,0,0,0,11.49,31ZM4.39,5.51l.11-.11h.07A12.48,12.48,0,0,0,2.89,8.1a5.84,5.84,0,0,0-.62.37A15.74,15.74,0,0,1,4,6C4.11,5.8,4.25,5.66,4.39,5.51ZM32,17c0-.09-.07-.19-.12-.3q.09-.65.13-1.31c0,.25,0,.5,0,.75S32,16.76,32,17ZM.44,14.76c0-.24,0-.47,0-.71s.1-.67.16-1a5.86,5.86,0,0,1,1.29-1.32c0,.37-.06.74-.06,1.11A11.43,11.43,0,0,0,2,14.76,9.37,9.37,0,0,0,.58,16.58,13.32,13.32,0,0,1,.44,14.76Zm31.13-2.4a6.78,6.78,0,0,0-1.28-1.14,11.66,11.66,0,0,0-.75-2.77,7.28,7.28,0,0,1,.68.33A15.8,15.8,0,0,1,31.58,12.37ZM30,11.06A13.54,13.54,0,0,0,27,9.62a8.66,8.66,0,0,0-.49-2,13.8,13.8,0,0,1,2.76.75A11.5,11.5,0,0,1,30,11.06Zm.16,1.78a11.33,11.33,0,0,1-.12,1.56,17.35,17.35,0,0,0-3.19-2.25A8.64,8.64,0,0,0,27,10.6c0-.24,0-.48,0-.72a13.11,13.11,0,0,1,3.1,1.52A11.4,11.4,0,0,1,30.2,12.84Zm-5.9,3.83c-1-1.3-2.25-2.75-3.76-4.34a5.38,5.38,0,0,0,.86-1,38.39,38.39,0,0,1,4.42,3.25A9.4,9.4,0,0,1,24.3,16.67ZM6.57,14.75a43.1,43.1,0,0,1,4.38-3.35,5.33,5.33,0,0,0,.82.94A56.6,56.6,0,0,0,8,16.7,9.42,9.42,0,0,1,6.57,14.75ZM5.46,10.6c0-.26,0-.51,0-.76a24.8,24.8,0,0,1,4.62-1.13s0,0,0,.06a4.45,4.45,0,0,0,.14,1.1,32.56,32.56,0,0,0-4.65,2.21A8.15,8.15,0,0,1,5.46,10.6ZM9.2,1.9l.56-.27.33-.14h0a8.33,8.33,0,0,1,.92.6A11.22,11.22,0,0,0,9,3.34,8.14,8.14,0,0,0,7.42,3,14.38,14.38,0,0,1,9.2,1.9Zm13.32-.27.57.28A14.35,14.35,0,0,1,24.84,3c-.31.09-.79.25-1.38.5a11,11,0,0,0-2.1-1.33,10.42,10.42,0,0,1,.83-.64h0Zm-.57,7.14a4.3,4.3,0,0,1-.13,1.06c-1.29-.48-3.18-1-4.81-1.51,1.69,0,3.62.23,4.94.4C21.94,8.75,21.94,8.76,21.94,8.77Zm-11.6,0s0-.06,0-.1a45.19,45.19,0,0,1,4.95-.43c-1.75.49-3.46,1-4.83,1.56A4.3,4.3,0,0,1,10.34,8.77ZM20.92,2.18a20.86,20.86,0,0,0-2,2,6.69,6.69,0,0,0-1.25-.42,19,19,0,0,1,1.09-2.27A11.49,11.49,0,0,1,20.92,2.18Zm-2-.9c.19-.32.34-.55.43-.66a15.82,15.82,0,0,1,2.56.77c-.18.13-.45.33-.8.63A11.8,11.8,0,0,0,18.91,1.28Zm-3,6.81a.24.24,0,1,1,.24.22A.23.23,0,0,1,15.9,8.09Zm.39-.74c0-.58,0-1.78-.05-3.56a6.56,6.56,0,0,1,1.16.12A27,27,0,0,0,16.29,7.34Zm-.22,0A26.08,26.08,0,0,0,15,3.89,6.63,6.63,0,0,1,16,3.79C16,5.82,16,6.93,16.07,7.39Zm.76.42a28.75,28.75,0,0,1,3.49-2.48,5.31,5.31,0,0,1,.76.85A30.8,30.8,0,0,0,16.83,7.8Zm4.39-1.45a4.66,4.66,0,0,1,.43.83A28.59,28.59,0,0,0,17,8,34.55,34.55,0,0,1,21.21,6.36ZM16.73,7.59A28.5,28.5,0,0,1,19,4.46a5.89,5.89,0,0,1,1.1.71A31,31,0,0,0,16.73,7.59Zm-.21-.13A27.15,27.15,0,0,1,17.62,4a6.4,6.4,0,0,1,1.19.39A28.9,28.9,0,0,0,16.52,7.46Zm1-3.76a6.84,6.84,0,0,0-1.24-.13q0-1.07,0-2.39a12,12,0,0,1,2.31.25A19.12,19.12,0,0,0,17.48,3.7ZM16,3.57a6.84,6.84,0,0,0-1.15.11A19.91,19.91,0,0,0,13.8,1.41,11.88,11.88,0,0,1,16,1.18Q16,2.5,16,3.57Zm-1.37.16a6.74,6.74,0,0,0-1.16.37,14.8,14.8,0,0,0-2-2,11.49,11.49,0,0,1,2.12-.68A19.29,19.29,0,0,1,14.65,3.73Zm.08.21a26.47,26.47,0,0,1,1.08,3.5,17.5,17.5,0,0,0-2.18-3.16A6.37,6.37,0,0,1,14.74,3.94Zm.86,3.64A22,22,0,0,0,12.36,5a5.85,5.85,0,0,1,1.06-.63A18.74,18.74,0,0,1,15.6,7.58Zm-.12.12A40.59,40.59,0,0,0,11.36,6a5.28,5.28,0,0,1,.81-.81A26.12,26.12,0,0,1,15.47,7.7Zm-.09.14a36.71,36.71,0,0,0-4.71-.74,4.7,4.7,0,0,1,.54-1A32.65,32.65,0,0,1,15.39,7.84Zm-.12.2a43.65,43.65,0,0,0-4.91.4,4.4,4.4,0,0,1,.23-1.12A36,36,0,0,1,15.27,8Zm.14.35c-1.59.91-3.15,1.85-4.4,2.69A4.54,4.54,0,0,1,10.53,10C11.91,9.48,13.63,8.89,15.4,8.4Zm.21.12C14.23,9.81,13,11,11.91,12.18a5.16,5.16,0,0,1-.79-.9C12.44,10.4,13.93,9.47,15.62,8.51Zm.1.15c-.94,1.53-1.82,3.06-2.57,4.38a5.9,5.9,0,0,1-1.07-.71C13.14,11.21,14.38,9.92,15.72,8.66Zm.17.12c-.51,1.67-1,3.33-1.39,4.77a6.21,6.21,0,0,1-1.15-.41C14.09,11.83,15,10.31,15.89,8.78Zm.19,0c0,1.23,0,3.06,0,4.94a6.52,6.52,0,0,1-1.32-.15C15.12,12.17,15.58,10.47,16.08,8.81Zm.22,0q.74,2.57,1.33,4.78a6.56,6.56,0,0,1-1.36.17C16.27,11.79,16.28,10.05,16.3,8.81Zm.23,0c1,1.51,1.82,3,2.57,4.28a6.31,6.31,0,0,1-1.25.48C17.46,12.08,17,10.46,16.53,8.78Zm.17,0c1.21,1.15,2.55,2.54,3.53,3.56a5.69,5.69,0,0,1-.92.64C18.6,11.74,17.56,10.14,16.69,8.76Zm.22,0q2.42,1.27,4.3,2.47a5.1,5.1,0,0,1-.83,1Q18.84,10.55,16.91,8.73Zm0-.24c1.81.51,3.41,1,4.81,1.56a4.46,4.46,0,0,1-.42.95Q19.4,9.78,16.93,8.49Zm0-.3a28.71,28.71,0,0,1,4.76-.79,4.35,4.35,0,0,1,.21,1.1A47.47,47.47,0,0,0,17,8.19Zm5-.8a19.78,19.78,0,0,1,4.29.16,8.49,8.49,0,0,1,.51,2,26,26,0,0,0-4.6-1A4.58,4.58,0,0,0,21.94,7.39Zm-.07-.22a4.77,4.77,0,0,0-.43-.88,26.91,26.91,0,0,1,3.65-.83,9.05,9.05,0,0,1,1.06,1.85A20.27,20.27,0,0,0,21.87,7.17ZM21.3,6.1a5.42,5.42,0,0,0-.79-.9,23.47,23.47,0,0,1,2.91-1.48,10,10,0,0,1,1.51,1.54A27.5,27.5,0,0,0,21.3,6.1ZM20.34,5a6.19,6.19,0,0,0-1.15-.76,20.34,20.34,0,0,1,2-2,10.89,10.89,0,0,1,2.05,1.27A24.13,24.13,0,0,0,20.34,5ZM18.68,1.23A12.05,12.05,0,0,0,16.27,1c0-.22,0-.44,0-.66a15.9,15.9,0,0,1,2.81.28C19,.72,18.86.94,18.68,1.23ZM16,1a12.26,12.26,0,0,0-2.36.25c-.17-.29-.31-.51-.4-.65A16,16,0,0,1,16.06.3C16.05.52,16,.74,16,1Zm-2.59.3a11.56,11.56,0,0,0-2.2.73,9.31,9.31,0,0,0-.89-.6A15.85,15.85,0,0,1,13,.6C13.11.71,13.26.93,13.46,1.26Zm-2.23,1a14.33,14.33,0,0,1,2.05,1.95,6.12,6.12,0,0,0-1.11.68A14.62,14.62,0,0,0,9.24,3.42,10.89,10.89,0,0,1,11.22,2.24ZM12,5a5.53,5.53,0,0,0-.83.86,19.39,19.39,0,0,0-3.62-.81A10.08,10.08,0,0,1,9,3.6,14.41,14.41,0,0,1,12,5ZM11,6.08a4.85,4.85,0,0,0-.55,1,20.45,20.45,0,0,0-4.24.07A9,9,0,0,1,7.32,5.29,18.65,18.65,0,0,1,11,6.08ZM10.37,7.3a4.57,4.57,0,0,0-.23,1.18,25.53,25.53,0,0,0-4.61,1.1A8.4,8.4,0,0,1,6.1,7.41,19.7,19.7,0,0,1,10.37,7.3Zm0,2.8a4.69,4.69,0,0,0,.5,1.11,44,44,0,0,0-4.37,3.33,8.61,8.61,0,0,1-.8-2.19A31.75,31.75,0,0,1,10.32,10.1Zm1.6,2.39a6.14,6.14,0,0,0,1.12.74c-1.11,2-2,3.7-2.76,5.24a10.46,10.46,0,0,1-2.1-1.6A55.52,55.52,0,0,1,11.93,12.49Zm1.31.85a6.6,6.6,0,0,0,1.2.43C13.84,16,13.35,17.89,13,19.6a11.34,11.34,0,0,1-2.47-1C11.23,17,12.13,15.31,13.24,13.34Zm1.42.48A6.85,6.85,0,0,0,16,14c0,1.89,0,4,0,6a12,12,0,0,1-2.86-.37C13.57,17.94,14.06,16,14.66,13.82Zm1.6.16a6.85,6.85,0,0,0,1.42-.17c.57,2.18,1,4.13,1.42,5.85a12,12,0,0,1-2.84.37C16.26,17.95,16.26,15.86,16.27,14Zm1.63-.22a6.37,6.37,0,0,0,1.31-.5c1.12,2,2,3.7,2.76,5.24a11.26,11.26,0,0,1-2.64,1.11C18.94,17.88,18.47,15.93,17.9,13.75Zm1.51-.61a6,6,0,0,0,1-.67c1.52,1.6,2.75,3.05,3.76,4.36a10.45,10.45,0,0,1-2,1.54C21.43,16.83,20.52,15.09,19.4,13.15Zm2.11-2a4.78,4.78,0,0,0,.43-1,35,35,0,0,1,4.69,2.15,8.6,8.6,0,0,1-.7,2.06A38.86,38.86,0,0,0,21.51,11.12Zm.5-1.2a4.52,4.52,0,0,0,.15-1.14h0a25.32,25.32,0,0,1,4.61,1c0,.26,0,.53,0,.8A8.39,8.39,0,0,1,26.69,12,35.89,35.89,0,0,0,22,9.92Zm4.38-2.56a9.26,9.26,0,0,0-1.07-1.93,18.1,18.1,0,0,1,2-.18,12.23,12.23,0,0,1,1.82,2.82A14.42,14.42,0,0,0,26.39,7.35ZM25.18,5.22a10.13,10.13,0,0,0-1.53-1.59,14,14,0,0,1,1.43-.5A13.43,13.43,0,0,1,27.14,5,19.61,19.61,0,0,0,25.18,5.22Zm-18-2a7.53,7.53,0,0,1,1.63.34A10.21,10.21,0,0,0,7.24,5,10.13,10.13,0,0,0,5.12,5,13.6,13.6,0,0,1,7.14,3.18ZM7.07,5.27A9.28,9.28,0,0,0,6,7.19,10.43,10.43,0,0,0,3.19,8,12.34,12.34,0,0,1,4.9,5.32,9.27,9.27,0,0,1,7.07,5.27ZM5.85,7.45a8.65,8.65,0,0,0-.56,2.21A13.41,13.41,0,0,0,2.22,11.2,11.43,11.43,0,0,1,3,8.29,10,10,0,0,1,5.85,7.45ZM2,11.39A6.93,6.93,0,0,0,.74,12.53,15.35,15.35,0,0,1,2,8.93a4.5,4.5,0,0,1,.71-.48A11.57,11.57,0,0,0,2,11.39Zm.12,1.45a11.42,11.42,0,0,1,.07-1.29A13,13,0,0,1,5.28,9.92c0,.23,0,.45,0,.68a8.6,8.6,0,0,0,.16,1.61,18,18,0,0,0-3.17,2.36A11.49,11.49,0,0,1,2.09,12.84Zm3.36-.36a8.75,8.75,0,0,0,.83,2.21,23,23,0,0,0-3,3.17,11.52,11.52,0,0,1-1-3A17.76,17.76,0,0,1,5.45,12.47ZM6.4,14.9a9.7,9.7,0,0,0,1.48,2,31.76,31.76,0,0,0-2.59,3.95,12.54,12.54,0,0,1-1.9-2.73A22.64,22.64,0,0,1,6.4,14.9ZM8.06,17a10.62,10.62,0,0,0,2.14,1.63c-.86,1.79-1.49,3.3-1.95,4.57A13.77,13.77,0,0,1,5.48,21,31.3,31.3,0,0,1,8.06,17Zm2.34,1.74a11.44,11.44,0,0,0,2.52,1c-.45,2-.76,3.63-1,5a14.82,14.82,0,0,1-3.47-1.48A49.22,49.22,0,0,1,10.39,18.78Zm2.74,1.08a12.2,12.2,0,0,0,2.91.38c0,1.79,0,3.56,0,5.17a15.37,15.37,0,0,1-3.9-.52C12.38,23.5,12.69,21.84,13.14,19.87Zm3.13.38a12.19,12.19,0,0,0,2.89-.38c.43,2,.74,3.63,1,5a15.53,15.53,0,0,1-3.85.52C16.27,23.8,16.27,22,16.26,20.24Zm3.1-.43a11.57,11.57,0,0,0,2.69-1.12,43.67,43.67,0,0,1,1.88,4.61,14.76,14.76,0,0,1-3.6,1.55C20.11,23.44,19.79,21.77,19.37,19.82Zm2.9-1.24a10.63,10.63,0,0,0,2-1.57,32.09,32.09,0,0,1,2.61,3.93,13.76,13.76,0,0,1-2.73,2.22A44.27,44.27,0,0,0,22.26,18.58Zm2.17-1.73A9.61,9.61,0,0,0,26,14.71a20.42,20.42,0,0,1,3,3.2,12.39,12.39,0,0,1-1.94,2.84A32.45,32.45,0,0,0,24.44,16.84Zm1.67-2.36a8.77,8.77,0,0,0,.74-2.08A16.69,16.69,0,0,1,30,14.7a11.53,11.53,0,0,1-.9,2.95A20.7,20.7,0,0,0,26.11,14.49Zm4.11.4a7.08,7.08,0,0,1,1.44,1.94,13.55,13.55,0,0,1-1,3.47,10.43,10.43,0,0,0-1.37-2.45A11.65,11.65,0,0,0,30.22,14.89Zm.05-.31a11.52,11.52,0,0,0,.15-1.74,11.67,11.67,0,0,0-.07-1.26,5.62,5.62,0,0,1,1.35,1.32,13.37,13.37,0,0,1,.14,1.86,13.39,13.39,0,0,1-.11,1.65A7.67,7.67,0,0,0,30.27,14.58Zm-.85-6.41a12.5,12.5,0,0,0-1.82-2.93h0A15.9,15.9,0,0,1,30,8.44ZM.47,17.29A13.73,13.73,0,0,0,1.6,20.74a6.25,6.25,0,0,0-.19.64,15.23,15.23,0,0,1-1-4ZM.64,17A8.92,8.92,0,0,1,2.1,15.07a11.7,11.7,0,0,0,1,3,11,11,0,0,0-1.4,2.41A13.49,13.49,0,0,1,.64,17Zm2.6,1.34A12.76,12.76,0,0,0,5.18,21,16.11,16.11,0,0,0,4,23.9a14.36,14.36,0,0,1-2.1-3.14A10.48,10.48,0,0,1,3.25,18.3Zm2.12,2.92a14,14,0,0,0,2.8,2.24,21.8,21.8,0,0,0-.92,3.26,15.42,15.42,0,0,1-3.09-2.59A15.83,15.83,0,0,1,5.37,21.22Zm3,2.35a15,15,0,0,0,3.51,1.49c-.23,1.47-.35,2.65-.41,3.56a16.31,16.31,0,0,1-4-1.77A21.39,21.39,0,0,1,8.38,23.57Zm3.74,1.55a15.71,15.71,0,0,0,3.93.52c0,1.36,0,2.6,0,3.63a16.83,16.83,0,0,1-4.35-.59C11.77,27.77,11.9,26.6,12.12,25.12Zm4.15.52a15.75,15.75,0,0,0,3.89-.52c.24,1.46.38,2.63.46,3.55a16.89,16.89,0,0,1-4.34.6C16.29,28.24,16.28,27,16.28,25.64Zm4.1-.57A15,15,0,0,0,24,23.51a21.12,21.12,0,0,1,.83,3.32,16.23,16.23,0,0,1-4,1.77C20.76,27.68,20.61,26.52,20.38,25.07Zm3.85-1.68A14,14,0,0,0,27,21.14,15.68,15.68,0,0,1,28.22,24a15.45,15.45,0,0,1-3.15,2.67A21.7,21.7,0,0,0,24.22,23.38ZM27.17,21a12.66,12.66,0,0,0,2-2.85,10.09,10.09,0,0,1,1.35,2.52,14.35,14.35,0,0,1-2.07,3.15A15.87,15.87,0,0,0,27.17,21Zm3.41,0a4.21,4.21,0,0,1,.2,1.36,15.57,15.57,0,0,1-2,3.24A7,7,0,0,0,28.49,24,14.61,14.61,0,0,0,30.58,20.92Zm.42.89a5.19,5.19,0,0,0-.25-1.21,13.85,13.85,0,0,0,1.07-3.39,2.5,2.5,0,0,1,.15.65,15.62,15.62,0,0,1-.62,3C31.24,21.19,31.13,21.5,31,21.81Zm-29.67,0c0,.05,0,.1,0,.15a15.65,15.65,0,0,1-.8-2.75A15.53,15.53,0,0,0,1.33,21.79Zm.19.45a15.76,15.76,0,0,0,2.09,3.4c0,.12,0,.23,0,.31a15.93,15.93,0,0,1-2.08-3.48h0A2,2,0,0,1,1.53,22.24Zm0-.43A5.33,5.33,0,0,1,1.76,21a14.58,14.58,0,0,0,2.12,3.11,8,8,0,0,0-.24,1.17A15.57,15.57,0,0,1,1.57,21.8Zm2.52,2.56A15.7,15.7,0,0,0,7.21,27a8.21,8.21,0,0,0-.13,1.63,15.93,15.93,0,0,1-3.22-3A7.77,7.77,0,0,1,4.09,24.36Zm7.61,4.54a17,17,0,0,0,4.36.59c0,.82,0,1.5,0,2a16.13,16.13,0,0,1-4.37-.66A15.42,15.42,0,0,1,11.71,28.9Zm4.59.59a17,17,0,0,0,4.36-.6c.08.9.1,1.55.1,2a16.1,16.1,0,0,1-4.45.64C16.3,31,16.3,30.32,16.29,29.49Zm8.82-2.56a15.67,15.67,0,0,0,3.19-2.67,6.2,6.2,0,0,1,.25,1.56,15.94,15.94,0,0,1-3.34,3A9,9,0,0,0,25.11,26.93ZM3.86,26.28a2.59,2.59,0,0,1,0-.35A16.14,16.14,0,0,0,7.1,28.87a3.13,3.13,0,0,0,.07.43A16,16,0,0,1,3.86,26.28Zm7.92,5.17c0-.06,0-.2-.06-.41a16.37,16.37,0,0,0,4.36.65c0,.15,0,.28,0,.38A15.89,15.89,0,0,1,11.78,31.46Zm4.52.25a16.4,16.4,0,0,0,4.45-.63c0,.15,0,.25,0,.32a15.86,15.86,0,0,1-4.44.67C16.3,32,16.3,31.85,16.3,31.71Zm8.84-2.43c0-.06,0-.13,0-.21a16.16,16.16,0,0,0,3.3-2.86A16,16,0,0,1,25.14,29.28Z"/></svg>